# xmcd CD database file
#
# Track frame offsets:
#	150
#	19090
#	34511
#	48779
#	60499
#	76846
#	94331
#	110687
#	131839
#	142273
#	158078
#
# Disc length: 2341 seconds
#
# Revision: 0
# Processed by: cddbd v1.5.2PL0 Copyright (c) Steve Scherf et al.
# Submitted via: CDex 1.70beta2
#
DISCID=8d09230b
DTITLE=Pera Williams Y Sus Muchachos - !Mezcal!
DYEAR=2006
DGENRE=Blues
TTITLE0=Don't Turn Me In
TTITLE1=I Know You're Fine
TTITLE2=The Clear
TTITLE3=Caravan
TTITLE4=This His Hip
TTITLE5=Daddy Pinocchio
TTITLE6=Greasy Gravy
TTITLE7=Burn In To The Ground
TTITLE8=Torqueflite
TTITLE9=You Wouldn't Change
TTITLE10=You Keep Watchin' Me
EXTD=YEAR: 2006
EXTT0=
EXTT1=
EXTT2=
EXTT3=
EXTT4=
EXTT5=
EXTT6=
EXTT7=
EXTT8=
EXTT9=
EXTT10=
PLAYORDER=
